<svg width="20" height="20" viewBox="0 0 20 20" fill="none" xmlns="http://www.w3.org/2000/svg">
<path d="M19.1308 7.41256C19.0731 7.24274 18.967 7.09353 18.8255 6.98335C18.684 6.87316 18.5134 6.80681 18.3346 6.79251L13.1054 6.377L10.8426 1.36798C10.7706 1.20665 10.6533 1.06963 10.5051 0.973442C10.3569 0.877257 10.184 0.826025 10.0073 0.825928C9.83063 0.825831 9.65769 0.876874 9.50936 0.972896C9.36104 1.06892 9.24367 1.20582 9.17143 1.36707L6.90861 6.377L1.67946 6.79251C1.50377 6.80642 1.33581 6.87066 1.19567 6.97754C1.05553 7.08442 0.949152 7.2294 0.889257 7.39516C0.829361 7.56091 0.818487 7.74041 0.857935 7.91218C0.897382 8.08395 0.985481 8.24072 1.11169 8.36373L4.976 12.1308L3.60932 18.0488C3.56782 18.2279 3.58112 18.4154 3.6475 18.5869C3.71387 18.7584 3.83025 18.9059 3.98154 19.0105C4.13282 19.115 4.31203 19.1716 4.4959 19.173C4.67978 19.1744 4.85983 19.1205 5.01269 19.0183L10.007 15.6888L15.0014 19.0183C15.1576 19.1221 15.3419 19.1755 15.5294 19.1713C15.7169 19.1672 15.8986 19.1058 16.0501 18.9953C16.2017 18.8848 16.3157 18.7306 16.377 18.5533C16.4383 18.3761 16.4438 18.1843 16.3928 18.0039L14.7152 12.1336L18.8758 8.38941C19.1482 8.14359 19.2482 7.76019 19.1308 7.41256Z" fill="#F3CD03"/>
</svg>
